<mxfile host="app.diagrams.net" modified="2023-03-22T03:29:07.889Z" agent="5.0 (Macintosh; Intel Mac OS X 10_15_7) AppleWebKit/537.36 (KHTML, like Gecko) Chrome/110.0.0.0 Safari/537.36 Edg/110.0.1587.63" etag="93jhr5BjR632NIyIp9e6" version="21.0.6" type="github">
  <diagram name="第 1 页" id="n978nCB4o9fpUzQAaaBS">
    <mxGraphModel dx="1434" dy="796" grid="1" gridSize="10" guides="1" tooltips="1" connect="1" arrows="1" fold="1" page="1" pageScale="1" pageWidth="2339" pageHeight="3300" math="0" shadow="0">
      <root>
        <mxCell id="0" />
        <mxCell id="1" parent="0" />
        <mxCell id="92hG7NTdTtCSO94ox0p--8" style="edgeStyle=orthogonalEdgeStyle;rounded=0;orthogonalLoop=1;jettySize=auto;html=1;entryX=1;entryY=0.5;entryDx=0;entryDy=0;" edge="1" parent="1" source="92hG7NTdTtCSO94ox0p--1" target="92hG7NTdTtCSO94ox0p--7">
          <mxGeometry relative="1" as="geometry" />
        </mxCell>
        <mxCell id="92hG7NTdTtCSO94ox0p--13" style="edgeStyle=orthogonalEdgeStyle;rounded=0;orthogonalLoop=1;jettySize=auto;html=1;entryX=1;entryY=0.5;entryDx=0;entryDy=0;" edge="1" parent="1" source="92hG7NTdTtCSO94ox0p--1" target="92hG7NTdTtCSO94ox0p--11">
          <mxGeometry relative="1" as="geometry" />
        </mxCell>
        <mxCell id="92hG7NTdTtCSO94ox0p--14" style="edgeStyle=orthogonalEdgeStyle;rounded=0;orthogonalLoop=1;jettySize=auto;html=1;" edge="1" parent="1" source="92hG7NTdTtCSO94ox0p--1" target="92hG7NTdTtCSO94ox0p--12">
          <mxGeometry relative="1" as="geometry" />
        </mxCell>
        <mxCell id="92hG7NTdTtCSO94ox0p--16" style="edgeStyle=orthogonalEdgeStyle;rounded=0;orthogonalLoop=1;jettySize=auto;html=1;entryX=1;entryY=0.5;entryDx=0;entryDy=0;" edge="1" parent="1" source="92hG7NTdTtCSO94ox0p--1" target="92hG7NTdTtCSO94ox0p--15">
          <mxGeometry relative="1" as="geometry" />
        </mxCell>
        <mxCell id="92hG7NTdTtCSO94ox0p--1" value="access-front-ims" style="rounded=1;whiteSpace=wrap;html=1;" vertex="1" parent="1">
          <mxGeometry x="690" y="450" width="120" height="60" as="geometry" />
        </mxCell>
        <mxCell id="92hG7NTdTtCSO94ox0p--4" value="" style="endArrow=classic;startArrow=classic;html=1;rounded=0;exitX=1;exitY=0.5;exitDx=0;exitDy=0;" edge="1" parent="1" source="92hG7NTdTtCSO94ox0p--1">
          <mxGeometry width="50" height="50" relative="1" as="geometry">
            <mxPoint x="1010" y="480" as="sourcePoint" />
            <mxPoint x="1110" y="480" as="targetPoint" />
          </mxGeometry>
        </mxCell>
        <mxCell id="92hG7NTdTtCSO94ox0p--5" value="外部业务" style="ellipse;whiteSpace=wrap;html=1;" vertex="1" parent="1">
          <mxGeometry x="1110" y="440" width="120" height="80" as="geometry" />
        </mxCell>
        <mxCell id="92hG7NTdTtCSO94ox0p--6" value="https://openapi.jlpay.com/access/front/ims/" style="text;html=1;align=center;verticalAlign=middle;resizable=0;points=[];autosize=1;strokeColor=none;fillColor=none;" vertex="1" parent="1">
          <mxGeometry x="830" y="440" width="250" height="30" as="geometry" />
        </mxCell>
        <mxCell id="92hG7NTdTtCSO94ox0p--19" style="edgeStyle=orthogonalEdgeStyle;rounded=0;orthogonalLoop=1;jettySize=auto;html=1;" edge="1" parent="1" source="92hG7NTdTtCSO94ox0p--7" target="92hG7NTdTtCSO94ox0p--17">
          <mxGeometry relative="1" as="geometry" />
        </mxCell>
        <mxCell id="92hG7NTdTtCSO94ox0p--20" style="edgeStyle=orthogonalEdgeStyle;rounded=0;orthogonalLoop=1;jettySize=auto;html=1;entryX=1;entryY=0.5;entryDx=0;entryDy=0;" edge="1" parent="1" source="92hG7NTdTtCSO94ox0p--7" target="92hG7NTdTtCSO94ox0p--18">
          <mxGeometry relative="1" as="geometry" />
        </mxCell>
        <mxCell id="92hG7NTdTtCSO94ox0p--7" value="zookeeper" style="rounded=0;whiteSpace=wrap;html=1;" vertex="1" parent="1">
          <mxGeometry x="460" y="580" width="120" height="60" as="geometry" />
        </mxCell>
        <mxCell id="92hG7NTdTtCSO94ox0p--11" value="&lt;meta charset=&quot;utf-8&quot;&gt;&lt;pre style=&quot;box-sizing: border-box; overflow: auto; font-family: Menlo, Monaco, Consolas, &amp;quot;Courier New&amp;quot;, monospace; font-size: 13px; display: block; padding: 15px; margin: 0px; line-height: 1.42857; word-break: break-all; overflow-wrap: break-word; color: rgb(51, 51, 51); background-color: rgb(245, 245, 245); border: 1px solid rgb(204, 204, 204); border-radius: 0px; position: relative; font-style: normal; font-variant-ligatures: normal; font-variant-caps: normal; font-weight: 400; letter-spacing: normal; orphans: 2; text-align: start; text-indent: 0px; text-transform: none; widows: 2; word-spacing: 0px; -webkit-text-stroke-width: 0px; text-decoration-thickness: initial; text-decoration-style: initial; text-decoration-color: initial;&quot; class=&quot;modal-body no-radius ng-binding&quot;&gt;access-app-query-svc&lt;/pre&gt;" style="text;whiteSpace=wrap;html=1;" vertex="1" parent="1">
          <mxGeometry x="390" y="310" width="190" height="50" as="geometry" />
        </mxCell>
        <mxCell id="92hG7NTdTtCSO94ox0p--12" value="&lt;meta charset=&quot;utf-8&quot;&gt;&lt;pre style=&quot;box-sizing: border-box; overflow: auto; font-family: Menlo, Monaco, Consolas, &amp;quot;Courier New&amp;quot;, monospace; font-size: 13px; display: block; padding: 15px; margin: 0px; line-height: 1.42857; word-break: break-all; overflow-wrap: break-word; color: rgb(51, 51, 51); background-color: rgb(245, 245, 245); border: 1px solid rgb(204, 204, 204); border-radius: 0px; position: relative; font-style: normal; font-variant-ligatures: normal; font-variant-caps: normal; font-weight: 400; letter-spacing: normal; orphans: 2; text-align: start; text-indent: 0px; text-transform: none; widows: 2; word-spacing: 0px; -webkit-text-stroke-width: 0px; text-decoration-thickness: initial; text-decoration-style: initial; text-decoration-color: initial;&quot; class=&quot;modal-body no-radius ng-binding&quot;&gt;crypto-hsm-svc&lt;/pre&gt;" style="text;whiteSpace=wrap;html=1;" vertex="1" parent="1">
          <mxGeometry x="440" y="410" width="140" height="60" as="geometry" />
        </mxCell>
        <mxCell id="92hG7NTdTtCSO94ox0p--15" value="access-app-query-svc" style="rounded=1;whiteSpace=wrap;html=1;" vertex="1" parent="1">
          <mxGeometry x="460" y="490" width="120" height="60" as="geometry" />
        </mxCell>
        <mxCell id="92hG7NTdTtCSO94ox0p--17" value="manage-ims" style="rounded=1;whiteSpace=wrap;html=1;" vertex="1" parent="1">
          <mxGeometry x="210" y="580" width="120" height="60" as="geometry" />
        </mxCell>
        <mxCell id="92hG7NTdTtCSO94ox0p--18" value="manage-agent" style="rounded=1;whiteSpace=wrap;html=1;" vertex="1" parent="1">
          <mxGeometry x="210" y="700" width="120" height="60" as="geometry" />
        </mxCell>
      </root>
    </mxGraphModel>
  </diagram>
</mxfile>
